<?xml version="1.0" standalone="no"?>
<!DOCTYPE svg PUBLIC "-//W3C//DTD SVG 20010904//EN"
 "http://www.w3.org/TR/2001/REC-SVG-20010904/DTD/svg10.dtd">
<svg version="1.0" xmlns="http://www.w3.org/2000/svg"
 width="336.000000pt" height="327.000000pt" viewBox="0 0 336.000000 327.000000"
 preserveAspectRatio="xMidYMid meet">

<g transform="translate(0.000000,327.000000) scale(0.100000,-0.100000)"
fill="#007BFF" stroke="none">
<path d="M1302 3129 c-58 -29 -92 -88 -92 -160 0 -64 16 -92 83 -143 48 -37
90 -46 126 -27 32 17 45 -9 73 -148 8 -41 25 -81 45 -109 37 -52 41 -35 -53
-189 -35 -58 -64 -108 -64 -113 0 -5 -8 -14 -17 -20 -15 -9 -14 -10 7 -5 21 5
23 4 10 -7 -18 -16 -66 -109 -62 -121 3 -12 -16 -45 -62 -106 -50 -65 -69 -94
-96 -144 -25 -46 -39 -43 -15 3 26 51 12 55 -23 7 -17 -25 -32 -48 -32 -52 0
-3 -11 -21 -24 -38 -28 -38 -42 -77 -27 -77 6 0 11 -5 11 -11 0 -5 -5 -7 -11
-4 -5 4 -19 -1 -31 -11 -19 -18 -20 -18 -35 1 -8 11 -25 40 -37 65 -12 25 -34
64 -49 87 -15 23 -45 80 -68 125 -44 88 -50 93 -181 167 -62 35 -65 42 -43 81
35 61 3 167 -66 222 -75 60 -194 43 -255 -37 -21 -28 -29 -51 -32 -96 -5 -72
8 -108 59 -153 44 -41 94 -53 161 -39 l47 9 28 -115 c25 -108 30 -119 69 -156
23 -22 48 -53 56 -70 16 -31 144 -254 168 -292 13 -20 12 -26 -1 -50 -23 -39
-74 -132 -104 -190 -14 -26 -45 -67 -69 -89 -28 -27 -54 -68 -76 -118 -26 -59
-37 -75 -49 -70 -65 27 -71 28 -123 15 -86 -21 -105 -31 -135 -74 -23 -34 -28
-51 -28 -103 0 -53 4 -69 30 -106 59 -83 167 -102 255 -44 47 31 68 73 77 150
3 28 10 56 15 63 5 7 38 21 72 33 97 32 98 33 212 218 21 35 46 73 55 85 16
21 17 21 39 -23 35 -69 154 -241 189 -274 17 -17 31 -35 31 -41 0 -10 -29 -54
-89 -134 -14 -19 -44 -86 -66 -149 l-40 -114 -51 -3 c-90 -4 -148 -67 -148
-160 0 -67 27 -114 84 -143 77 -40 149 -21 205 52 39 51 43 104 14 156 l-24
43 34 26 c113 87 134 108 146 143 7 21 10 39 8 42 -3 3 2 12 11 21 9 9 16 27
16 40 0 14 13 38 29 54 l29 29 55 -33 c30 -18 65 -36 78 -40 34 -10 69 -34 69
-46 0 -6 -9 -8 -22 -4 -23 7 -23 7 -3 -12 11 -10 35 -26 54 -35 31 -14 36 -14
62 1 29 16 38 31 18 31 -19 0 0 18 49 45 156 89 172 96 172 76 0 -6 -27 -24
-60 -42 -33 -17 -60 -36 -60 -40 0 -5 2 -9 5 -9 11 0 106 53 111 62 9 13 48
-33 86 -102 57 -102 92 -149 130 -170 49 -28 60 -48 42 -80 -7 -14 -13 -46
-14 -71 -1 -121 154 -202 250 -131 96 71 95 204 -2 276 -21 15 -44 20 -90 20
-69 1 -60 -10 -88 102 -5 23 -21 54 -36 70 -55 63 -94 117 -94 130 0 8 -7 26
-16 39 -16 24 -15 27 7 54 113 137 218 291 236 343 3 10 8 18 12 18 3 0 40
-59 80 -132 80 -139 95 -155 186 -184 87 -28 95 -37 95 -102 0 -109 71 -181
177 -182 88 0 140 31 174 105 41 88 12 184 -69 227 -85 46 -125 50 -178 17
-44 -27 -52 -24 -64 22 -22 81 -57 146 -94 174 -21 16 -47 47 -58 69 -11 22
-28 52 -38 66 -78 114 -101 159 -91 177 6 10 17 34 26 53 l16 35 -35 -40 c-45
-50 -46 -38 -4 23 53 77 60 84 70 70 6 -10 8 -10 8 1 0 8 6 22 14 30 7 9 28
45 46 81 19 36 55 88 80 115 43 45 50 60 75 156 l27 106 87 -1 c81 -1 90 1
125 28 104 78 99 231 -8 303 -33 22 -52 27 -101 28 -99 0 -157 -49 -190 -158
-13 -44 -13 -54 0 -80 8 -17 15 -37 15 -46 0 -15 -39 -44 -83 -63 -10 -4 -39
-23 -64 -40 -40 -29 -54 -49 -105 -158 -63 -132 -147 -280 -161 -280 -13 0
-55 53 -61 76 -5 20 -78 136 -116 184 -11 14 -20 30 -20 36 0 5 -29 55 -65
109 -36 55 -65 104 -65 109 0 28 96 -100 123 -165 7 -19 21 -40 30 -48 10 -7
17 -21 17 -31 0 -15 53 -80 65 -80 3 0 5 7 5 16 0 15 -26 53 -64 94 -18 19
-56 88 -56 100 0 6 -31 58 -70 116 -38 58 -70 109 -70 113 0 4 -11 21 -25 37
-14 16 -51 71 -82 122 l-56 94 31 43 c35 49 57 107 67 178 4 26 12 47 17 47 6
0 7 8 4 17 -10 25 13 33 74 26 48 -4 58 -2 74 16 11 11 24 21 30 21 6 0 21 15
33 33 61 90 26 204 -79 258 -94 48 -207 -5 -239 -111 -12 -40 -5 -125 12 -135
20 -13 6 -36 -46 -75 -30 -22 -63 -50 -74 -61 l-19 -21 -78 58 c-44 31 -82 60
-86 63 -4 4 -1 24 7 46 20 57 19 124 -4 161 -51 84 -156 116 -239 73z m124
-114 c19 -19 23 -31 18 -52 -17 -77 -110 -78 -129 -1 -5 21 -1 33 19 52 32 33
60 33 92 1z m618 4 c50 -39 23 -109 -43 -109 -56 0 -81 70 -41 110 26 26 51
25 84 -1z m-1510 -728 c30 -57 -7 -111 -75 -111 -67 0 -100 70 -59 123 35 44
109 38 134 -12z m2433 24 c43 -30 37 -99 -12 -131 -22 -14 -32 -15 -66 -5 -32
10 -44 20 -55 47 -13 30 -13 38 1 63 8 16 20 31 27 34 27 11 84 6 105 -8z
m-1242 -75 c14 -27 30 -50 35 -50 6 0 10 -5 10 -11 0 -14 26 -39 40 -39 6 0 8
-4 5 -10 -3 -5 -2 -10 3 -10 9 0 107 -115 128 -152 7 -12 21 -39 31 -58 10
-19 33 -56 51 -82 34 -50 31 -62 -6 -28 -12 11 -24 20 -27 20 -11 0 7 -43 26
-64 11 -11 19 -24 19 -29 0 -10 48 -76 72 -98 10 -9 18 -24 18 -32 0 -9 21
-50 47 -92 54 -88 57 -69 -43 -240 -65 -113 -131 -206 -149 -211 -5 -2 -68 96
-140 217 -134 227 -160 268 -168 259 -2 -3 -46 -77 -97 -165 -124 -214 -200
-330 -209 -319 -77 92 -221 314 -221 342 0 5 7 23 16 41 19 38 14 47 -15 30
-34 -22 -33 -5 1 54 23 40 38 55 49 51 10 -3 23 5 33 21 9 14 12 25 7 25 -5 0
-11 -5 -13 -11 -2 -7 -9 -10 -16 -8 -8 3 1 22 23 53 34 48 55 73 42 49 -8 -13
1 -43 14 -43 16 0 61 82 51 92 -13 13 -33 1 -26 -16 6 -16 -23 -30 -32 -15 -3
6 12 32 35 59 23 27 41 54 41 60 0 6 13 30 28 53 16 23 42 66 58 94 26 47 44
66 44 46 0 -11 -83 -158 -93 -165 -6 -3 -11 -17 -12 -30 -1 -12 -8 -23 -15
-23 -14 0 -31 -35 -23 -48 6 -10 43 22 43 36 0 5 15 30 34 56 19 25 47 71 64
101 16 30 41 74 53 97 25 43 20 71 -6 37 -8 -10 -15 -15 -15 -11 0 12 43 67
53 67 5 0 7 -7 3 -15 -11 -29 9 -15 23 15 14 33 90 150 97 150 2 0 15 -22 29
-50z m240 0 c8 -16 15 -34 15 -40 0 -17 -37 22 -44 48 -11 33 11 27 29 -8z
m140 -500 c3 -5 1 -10 -4 -10 -6 0 -11 5 -11 10 0 6 2 10 4 10 3 0 8 -4 11
-10z m-406 -559 c6 -10 25 -36 44 -59 24 -29 36 -55 41 -89 5 -37 15 -59 41
-87 19 -21 35 -42 35 -47 0 -8 -163 -129 -174 -129 -9 0 -153 96 -171 113 -20
21 -19 36 4 61 11 12 42 66 70 120 69 134 90 156 110 117z m171 -23 c16 -22
30 -47 30 -55 0 -7 7 -16 15 -19 8 -4 15 -12 15 -20 0 -8 5 -14 10 -14 15 0
12 -46 -4 -59 -8 -7 -16 -8 -19 -4 -3 4 -20 35 -37 68 -18 33 -38 67 -45 75
-26 32 -28 70 -4 70 5 0 22 -19 39 -42z m-276 -49 c-10 -12 -17 -22 -15 -23 5
-2 -37 -83 -67 -128 -25 -39 -42 -48 -42 -25 0 18 74 133 108 170 30 31 44 37
16 6z m-1068 -285 c32 -31 27 -67 -17 -107 -24 -22 -37 -27 -58 -22 -64 15
-81 86 -30 129 39 33 73 33 105 0z m2432 10 c76 -53 25 -159 -68 -139 -54 12
-79 96 -40 135 24 24 77 26 108 4z m-853 -114 c29 -57 29 -60 12 -60 -17 0
-62 84 -53 99 11 17 14 15 41 -39z m-732 3 c-3 -10 -12 -25 -20 -34 -13 -16
-47 -112 -48 -137 0 -8 -9 -20 -19 -28 -25 -18 -42 -19 -29 -1 5 6 22 53 38
103 24 75 33 93 54 102 15 5 27 10 28 11 1 1 0 -7 -4 -16z m321 -118 c17 -13
18 -15 2 -21 -18 -7 -49 13 -40 27 7 12 16 11 38 -6z m-626 -288 c8 -6 12 -25
10 -46 -2 -26 -10 -39 -30 -50 -25 -14 -29 -14 -55 5 -38 28 -40 58 -9 89 27
27 53 27 84 2z m1330 -4 c29 -39 0 -93 -49 -93 -36 0 -59 24 -59 60 0 54 74
77 108 33z"/>
<path d="M1850 2024 c0 -4 11 -17 25 -30 26 -24 32 -17 15 17 -10 17 -40 27
-40 13z"/>
<path d="M1915 1918 c4 -13 16 -32 27 -43 l20 -20 -7 30 c-7 33 -22 55 -37 55
-5 0 -6 -10 -3 -22z"/>
<path d="M1190 1535 c-7 -9 -11 -18 -8 -20 3 -3 11 1 18 10 7 9 11 18 8 20 -3
3 -11 -1 -18 -10z"/>
<path d="M1296 2081 c-7 -11 -4 -61 4 -61 6 0 30 50 30 62 0 11 -27 10 -34 -1z"/>
<path d="M1237 1983 c-2 -5 -7 -21 -11 -38 -7 -29 -7 -29 12 -12 25 23 35 57
17 57 -8 0 -16 -3 -18 -7z"/>
<path d="M2270 1719 c0 -6 14 -27 30 -46 37 -41 39 -31 5 20 -27 39 -35 45
-35 26z"/>
<path d="M1417 698 c14 -17 102 -62 109 -55 6 6 -65 52 -96 62 -21 7 -23 6
-13 -7z"/>
<path d="M1780 629 c0 -5 5 -7 10 -4 6 3 10 8 10 11 0 2 -4 4 -10 4 -5 0 -10
-5 -10 -11z"/>
</g>
</svg>
